# xmcd
#
# Track frame offsets:
#	150
#	20307
#	40322
#	55647
#	72145
#	96147
#	117970
#	139342
#	165222
#	191425
#	210585
#	231405
#	257330
#	281627
#	303237
#
# Disc length: 4388 seconds
#
# Revision: 1
# Processed by: cddbd v1.5PL3 Copyright (c) Steve Scherf et al.
# Submitted via: CDex 1.50Beta5
#
DISCID=c511220f
DTITLE=笠原弘子 - hiroko kasahara super best〜Warner 30th Anniversary Disc 3
DYEAR=2000
DGENRE=Pop
TTITLE0=スローガラスの輝き
TTITLE1=約束
TTITLE2=いつか きみと…
TTITLE3=AIR MAIL
TTITLE4=Distance
TTITLE5=水色の自転車
TTITLE6=恋にNO RETURN!!
TTITLE7=YOU and ME
TTITLE8=ヒ・ロ・イ・ン
TTITLE9=ひまわり
TTITLE10=さよならがくれたのは
TTITLE11=Millionth Star 〜1,000,000分の1の星のあなたへ〜
TTITLE12=アヤシイ
TTITLE13=そっと夜に泣こう
TTITLE14=Nostalgia
EXTD=
EXTT0=
EXTT1=
EXTT2=
EXTT3=
EXTT4=
EXTT5=
EXTT6=
EXTT7=
EXTT8=
EXTT9=
EXTT10=
EXTT11=
EXTT12=
EXTT13=
EXTT14=
PLAYORDER=
